<svg width="40" height="40" viewBox="0 0 40 40" fill="none" xmlns="http://www.w3.org/2000/svg">
<path d="M10.8458 33.818C12.5158 33.818 13.8737 35.2059 13.8737 36.91C13.8737 38.6142 12.5158 40 10.8458 40C9.17586 40 7.8159 38.6142 7.8159 36.91C7.8159 35.2059 9.17586 33.818 10.8458 33.818ZM33.3493 33.818C35.0192 33.818 36.3792 35.2059 36.3792 36.91C36.3792 38.6142 35.0192 40 33.3493 40C31.6793 40 30.3213 38.6142 30.3213 36.91C30.3213 35.2059 31.6793 33.818 33.3493 33.818ZM1.55089 0.000639763L1.75585 0.0203014L5.91774 0.757076C6.58973 0.875449 7.09971 1.44487 7.15571 2.13878L9.08166 25.5523C9.17366 26.6748 10.0756 27.5218 11.1816 27.5218H33.0031C34.043 27.5218 34.939 26.7299 35.089 25.6809L36.987 12.2944C37.055 11.8209 36.843 11.4883 36.711 11.3311C36.579 11.176 36.287 10.9148 35.817 10.9148H14.3275C13.4996 10.9148 12.8276 10.229 12.8276 9.38407C12.8276 8.53913 13.4996 7.85338 14.3275 7.85338H35.817C37.031 7.85338 38.1849 8.39218 38.9789 9.32896C39.7729 10.2657 40.1309 11.5046 39.9569 12.7332L38.0569 26.1197C37.6969 28.6647 35.525 30.5832 33.0031 30.5832H11.1816C8.50368 30.5832 6.31573 28.53 6.09174 25.8074L4.26379 3.57151L1.24386 3.03883C0.427882 2.89393 -0.118105 2.10205 0.0218919 1.26935C0.161888 0.434609 0.929869 -0.1144 1.75585 0.0203014L1.55089 0.000639763ZM29.7975 15.3979C30.6255 15.3979 31.2975 16.0836 31.2975 16.9286C31.2975 17.7735 30.6255 18.4593 29.7975 18.4593H24.2517C23.4217 18.4593 22.7517 17.7735 22.7517 16.9286C22.7517 16.0836 23.4217 15.3979 24.2517 15.3979H29.7975Z" fill="black"/>
</svg>
