<svg width="54" height="55" viewBox="0 0 54 55" fill="none" xmlns="http://www.w3.org/2000/svg">
<rect x="0.5" y="4.5" width="53" height="50" rx="7.5" fill="white" stroke="#4D4D4D"/>
<rect x="5.5" y="19.5" width="9" height="8" rx="2.5" fill="#FB3030" fill-opacity="0.71" stroke="#4D4D4D"/>
<rect x="5.5" y="30.5" width="9" height="8" rx="2.5" fill="white" stroke="#4D4D4D"/>
<rect x="5.5" y="41.5" width="9" height="8" rx="2.5" fill="white" stroke="#4D4D4D"/>
<rect x="22.5" y="19.5" width="9" height="8" rx="2.5" fill="white" stroke="#4D4D4D"/>
<rect x="22.5" y="30.5" width="9" height="8" rx="2.5" fill="white" stroke="#4D4D4D"/>
<rect x="22.5" y="41.5" width="9" height="8" rx="2.5" fill="white" stroke="#4D4D4D"/>
<rect x="0.5" y="4.5" width="53" height="12" rx="6" fill="white" stroke="#4D4D4D"/>
<rect x="15.5" y="-0.5" width="3" height="8" rx="1.5" fill="#434343" stroke="#4D4D4D"/>
<rect x="35.5" y="-0.5" width="3" height="8" rx="1.5" fill="#434343" stroke="#4D4D4D"/>
<rect x="39.5" y="19.5" width="9" height="8" rx="2.5" fill="white" stroke="#4D4D4D"/>
<rect x="39.5" y="30.5" width="9" height="8" rx="2.5" fill="white" stroke="#4D4D4D"/>
<rect x="39.5" y="41.5" width="9" height="8" rx="2.5" fill="white" stroke="#4D4D4D"/>
</svg>
