<?xml version="1.0" encoding="utf-8"?>
<!-- Generator: Adobe Illustrator 25.4.1, SVG Export Plug-In . SVG Version: 6.00 Build 0)  -->
<svg version="1.1" id="Слой_1" xmlns="http://www.w3.org/2000/svg" xmlns:xlink="http://www.w3.org/1999/xlink" x="0px" y="0px"
	 viewBox="0 0 67 46" style="enable-background:new 0 0 67 46;" xml:space="preserve">
<style type="text/css">
	.st0{opacity:1.000000e-02;}
	.st1{fill:#D9D9D9;}
	.st2{fill:#191515;}
</style>
<g>
	<g class="st0">
		<path class="st1" d="M19.9,38l-0.7-0.5l-0.8,0.3c-3.1,1.2-5.8,2.3-8.2,3.1c-2.3,0.8-4.2,1.2-5.6,1.3c-1.4,0.1-2.1-0.2-2.5-0.5
			c-0.3-0.3-0.6-0.8-0.7-2.1c0.7-0.9,1.9-1.9,3.2-3c0.9-0.7,1.8-1.3,2.7-2c0.7-0.5,1.5-1,2.2-1.6c1.6-1.2,3.3-2.6,4.4-4
			c1.2-1.4,2.1-3.1,1.8-5.1c-0.8-7,1.6-12.4,5.6-16.1c4.1-3.8,10-6,16.1-6.4C50.2,0.7,62.9,7,64.5,20.3c0.2,7.2-1.7,12.3-4.7,15.9
			c-3.1,3.7-7.4,5.9-12.3,7C37.6,45.4,26,42.7,19.9,38z"/>
	</g>
	<g>
		<path class="st2" d="M40.1,45.5c-7.8,0-15.9-2.3-21.1-6.3l0,0c-2.8,1.1-5.7,2.3-8.2,3.1c-2.6,0.8-4.4,1.3-5.9,1.4
			c-1.6,0.1-2.8-0.1-3.6-0.8c-0.7-0.6-1.1-1.7-1.2-3.1l0-0.6l0.4-0.4c0.8-1,1.9-2,3.5-3.2c0.9-0.7,1.8-1.4,2.8-2
			c0.7-0.5,1.4-1,2.2-1.6c1.3-1,3-2.3,4.2-3.7c1.2-1.4,1.7-2.7,1.5-3.9c-0.8-6.9,1.3-12.9,6.1-17.4c4.2-3.9,10.3-6.3,17-6.8
			C50-0.8,64.1,5.2,66,20.1l0,0.1c0.2,7-1.5,12.7-5.1,17c-3.1,3.7-7.6,6.3-13.2,7.5C45.3,45.2,42.7,45.5,40.1,45.5z M20.8,36.8
			c6.2,4.8,17.5,6.9,26.3,4.9c4.9-1.1,8.8-3.3,11.5-6.5c3.1-3.7,4.6-8.7,4.4-14.9C61.4,7.4,48.8,2.3,37.8,3.1
			c-6.1,0.4-11.5,2.5-15.2,6c-4.1,3.7-5.8,8.9-5.1,14.8c0.2,2.1-0.5,4.2-2.2,6.2c-1.4,1.6-3.2,3.1-4.7,4.2c-0.8,0.6-1.5,1.1-2.2,1.6
			c-0.9,0.7-1.8,1.3-2.7,2c-1.1,0.9-2,1.6-2.6,2.3c0.1,0.3,0.1,0.4,0.2,0.5c0,0,0.2,0.1,0.8,0.1c0.2,0,0.3,0,0.5,0
			c1.2-0.1,3-0.5,5.2-1.3c2.5-0.8,5.5-2,8.1-3l1.6-0.6L20.8,36.8L20.8,36.8z"/>
	</g>
</g>
<g>
	<ellipse class="st2" cx="30.2" cy="23" rx="3.2" ry="3"/>
</g>
<g>
	<ellipse class="st2" cx="39.5" cy="23" rx="3.2" ry="3"/>
</g>
<g>
	<ellipse class="st2" cx="48.8" cy="23" rx="3.2" ry="3"/>
</g>
</svg>
