<?xml version="1.0" encoding="utf-8"?>
<!-- Generator: Adobe Illustrator 25.4.1, SVG Export Plug-In . SVG Version: 6.00 Build 0)  -->
<svg version="1.1" id="Слой_1" xmlns="http://www.w3.org/2000/svg" xmlns:xlink="http://www.w3.org/1999/xlink" x="0px" y="0px"
	 viewBox="0 0 41 38" style="enable-background:new 0 0 41 38;" xml:space="preserve">
<style type="text/css">
	.st0{opacity:1.000000e-02;}
	.st1{fill:#8487E0;}
</style>
<g class="st0">
	<path class="st1" d="M19.6,9.8l1.5,4.2l1.3-4.3c1.8-5.8,5.5-8.2,8.8-8.3c3.2-0.1,6.7,2,8.3,6.6c-0.1,4.8-2.2,9.6-5.6,14.5
		c-3.4,4.7-7.9,9.2-13,13.5c-4.5-2.9-10.3-8.5-14.4-14.4c-2.2-3.2-3.8-6.3-4.6-9.1C1.2,9.8,1.4,7.6,2.7,5.9c2.9-3.8,6.4-4.6,9.5-3.8
		C15.3,3.1,18.2,5.9,19.6,9.8z"/>
</g>
<g>
	<path d="M21,38l-0.9-0.6c-5-3.3-10.9-9.1-14.8-14.8c-2.4-3.5-4-6.7-4.8-9.6c-0.8-3.3-0.5-6,1-8c3-3.9,7-5.5,11.1-4.3
		c3.7,1.1,7,4.4,8.5,8.6l0,0v0c1.8-5.7,5.6-9.2,10.2-9.3c4.2-0.1,8.1,2.9,9.7,7.6L41,7.9l0,0.3c-0.1,4.8-2.1,10-5.9,15.4
		c-3.2,4.4-7.5,8.9-13.2,13.8L21,38z M9.9,3.3c-1.8,0-3.9,0.8-6,3.5c-0.9,1.3-1.1,3.1-0.5,5.4c0.6,2.5,2.1,5.5,4.3,8.6
		c3.5,5,8.6,10.2,13.1,13.4c5.1-4.4,9-8.6,11.9-12.5c3.4-4.8,5.2-9.3,5.3-13.4c-1.5-4.1-4.4-5.4-6.7-5.4c-3.2,0.1-6,2.8-7.4,7.2
		l-2.7,8.6l-3-8.5C17,7,14.5,4.4,11.7,3.6C11.2,3.4,10.5,3.3,9.9,3.3z"/>
</g>
</svg>
