<svg width="65" height="36" viewBox="0 0 65 36" fill="none" xmlns="http://www.w3.org/2000/svg">
<path d="M65 18C65 27.8769 56.3 36 45.5 36C34.8 36 26 27.8769 26 18C26 8.12308 34.7 0 45.4 0C56.3 0 65 8.12308 65 18Z" fill="#717171"/>
<path d="M38.9 18.0923C38.9 16.8 38.7 15.5077 38.5 14.3077H26.5C26.6 13.6615 26.8 13.1077 27 12.3692H37.7C37.5 11.7231 37.2 11.0769 36.9 10.4308H27.8C28.1 9.78462 28.5 9.23077 28.9 8.49231H35.8C35.4 7.84615 34.9 7.2 34.3 6.55385H30.5C31.1 5.90769 31.7 5.35385 32.5 4.70769C29.1 1.75385 24.5 0 19.4 0C8.8 0.276923 0 8.12308 0 18C0 27.8769 8.7 36 19.5 36C24.6 36 29.1 34.1538 32.6 31.2923C33.3 30.7385 33.9 30.0923 34.6 29.3538H30.6C30.1 28.8 29.6 28.1538 29.2 27.5077H36C36.4 26.9538 36.8 26.3077 37.1 25.5692H28C27.7 25.0154 27.4 24.3692 27.2 23.6308H37.9C38.5 21.9692 38.9 20.1231 38.9 18.0923Z" fill="#4D4D4D"/>
<path d="M26.4 22.6155L26.7 20.9539C26.6 20.9539 26.4 21.0462 26.2 21.0462C25.5 21.0462 25.4 20.677 25.5 20.4924L26.1 17.1693H27.2L27.5 15.3231H26.5L26.7 14.2155H24.6C24.6 14.2155 23.4 20.4924 23.4 21.2308C23.4 22.3385 24.1 22.8924 25.1 22.8924C25.7 22.8924 26.2 22.7078 26.4 22.6155Z" fill="white"/>
<path d="M27.1 19.5692C27.1 22.2461 29.1 22.8922 30.7 22.8922C32.2 22.8922 32.9 22.6153 32.9 22.6153L33.3 20.7692C33.3 20.7692 32.2 21.2307 31.1 21.2307C28.8 21.2307 29.2 19.6615 29.2 19.6615H33.4C33.4 19.6615 33.7 18.4615 33.7 17.9076C33.7 16.7076 33 15.1384 30.7 15.1384C28.7 15.0461 27.1 17.1692 27.1 19.5692ZM30.7 16.7999C31.8 16.7999 31.6 17.9999 31.6 18.0922H29.3C29.4 17.9999 29.6 16.7999 30.7 16.7999Z" fill="white"/>
<path d="M43.8 22.6154L44.2 20.4924C44.2 20.4924 43.2 20.9539 42.4 20.9539C41 20.9539 40.3 19.9385 40.3 18.7385C40.3 16.4308 41.5 15.2308 43 15.2308C44 15.2308 44.9 15.7847 44.9 15.7847L45.2 13.7539C45.2 13.7539 44 13.2924 42.8 13.2924C40.4 13.2924 38.1 15.2308 38.1 18.8308C38.1 21.2308 39.3 22.8001 41.8 22.8001C42.7 22.8924 43.8 22.6154 43.8 22.6154Z" fill="white"/>
<path d="M15.1 15.0461C13.7 15.0461 12.6 15.4154 12.6 15.4154L12.3 17.0769C12.3 17.0769 13.2 16.7077 14.6 16.7077C15.3 16.7077 15.9 16.8 15.9 17.3538C15.9 17.7231 15.8 17.8154 15.8 17.8154H14.9C13.1 17.8154 11.2 18.4615 11.2 20.6769C11.2 22.4308 12.4 22.8 13.2 22.8C14.6 22.8 15.3 21.9692 15.4 21.9692L15.3 22.7077H17L17.8 17.4461C17.8 15.1385 15.8 15.0461 15.1 15.0461ZM15.5 19.2923C15.5 19.5692 15.3 21.1385 14.1 21.1385C13.5 21.1385 13.3 20.6769 13.3 20.4C13.3 19.9385 13.6 19.2923 15.2 19.2923C15.4 19.2923 15.5 19.2923 15.5 19.2923Z" fill="white"/>
<path d="M19.8 22.8C20.3 22.8 22.9 22.8923 22.9 20.3077C22.9 17.9077 20.4 18.3692 20.4 17.4462C20.4 16.9846 20.8 16.8 21.5 16.8C21.8 16.8 22.9 16.8923 22.9 16.8923L23.2 15.1385C23.2 15.1385 22.5 14.9539 21.2 14.9539C19.7 14.9539 18.1 15.5077 18.1 17.4462C18.1 19.6615 20.7 19.4769 20.7 20.3077C20.7 20.8615 20 20.9539 19.5 20.9539C18.6 20.9539 17.6 20.6769 17.6 20.6769L17.3 22.4308C17.5 22.6154 18.1 22.8 19.8 22.8Z" fill="white"/>
<path d="M61 13.5692L60.6 16.1538C60.6 16.1538 59.8 15.2308 58.6 15.2308C56.7 15.2308 55.1 17.3538 55.1 19.8461C55.1 21.4154 55.9 22.9846 57.7 22.9846C58.9 22.9846 59.7 22.2461 59.7 22.2461L59.6 22.8923H61.7L63.2 13.7538L61 13.5692ZM60 18.5538C60 19.5692 59.5 20.9538 58.3 20.9538C57.6 20.9538 57.2 20.4 57.2 19.3846C57.2 17.8154 57.9 16.8923 58.9 16.8923C59.6 16.9846 60 17.4461 60 18.5538Z" fill="white"/>
<path d="M3.79999 22.7077L4.99999 15.8769L5.19999 22.7077H6.59999L9.29999 15.8769L8.19999 22.7077H10.4L12.1 13.5692H8.69999L6.59999 19.2L6.49999 13.5692H3.49999L1.79999 22.7077H3.79999Z" fill="white"/>
<path d="M35.8 22.7076C36.4 19.5692 36.5 16.9846 38 17.4461C38.2 16.2461 38.5 15.6923 38.7 15.2307H38.3C37.4 15.2307 36.6 16.3384 36.6 16.3384L36.8 15.323H34.8L33.5 22.7076H35.8Z" fill="white"/>
<path d="M48.6 15.0461C47.2 15.0461 46.1 15.4154 46.1 15.4154L45.8 17.0769C45.8 17.0769 46.7 16.7077 48.1 16.7077C48.8 16.7077 49.4 16.8 49.4 17.3538C49.4 17.7231 49.3 17.8154 49.3 17.8154H48.4C46.6 17.8154 44.7 18.4615 44.7 20.6769C44.7 22.4308 45.9 22.8 46.7 22.8C48.1 22.8 48.8 21.9692 48.9 21.9692L48.8 22.7077H50.7L51.5 17.4461C51.5 15.1385 49.3 15.0461 48.6 15.0461ZM49.1 19.2923C49.1 19.5692 48.9 21.1385 47.7 21.1385C47.1 21.1385 46.9 20.6769 46.9 20.4C46.9 19.9385 47.2 19.2923 48.8 19.2923C49 19.2923 49 19.2923 49.1 19.2923Z" fill="white"/>
<path d="M53.1 22.7076C53.7 19.5692 53.8 16.9846 55.3 17.4461C55.5 16.2461 55.8 15.6923 56 15.2307H55.6C54.7 15.2307 53.9 16.3384 53.9 16.3384L54.1 15.323H52.1L50.8 22.7076H53.1Z" fill="white"/>
</svg>
