<svg width="78" height="19" viewBox="0 0 78 19" fill="none" xmlns="http://www.w3.org/2000/svg">
<path d="M29.4 8.09998C29.2 9.59998 28 9.59998 26.9 9.59998H26.3L26.8 6.69997C26.8 6.49997 27 6.39997 27.2 6.39997H27.5C28.3 6.39997 29 6.39998 29.4 6.79998C29.4 7.19998 29.4 7.59998 29.4 8.09998ZM28.9 4.09998H24.6C24.3 4.09998 24.1 4.29998 24 4.59998L22.3 15.6C22.3 15.8 22.4 16 22.7 16H24.7C25 16 25.2 15.8 25.3 15.5L25.8 12.5C25.8 12.2 26.1 12 26.4 12H27.8C30.6 12 32.2 10.6 32.7 7.89997C32.9 6.69997 32.7 5.79998 32.2 5.09998C31.4 4.49998 30.3 4.09998 28.9 4.09998Z" fill="#1D1D1D"/>
<path d="M38.8 12.1C38.6 13.3 37.7 14.1 36.5 14.1C35.9 14.1 35.4 13.9 35.1 13.5C34.8 13.1 34.7 12.6 34.8 12.1C35 10.9 35.9 10.1 37.1 10.1C37.7 10.1 38.2 10.3 38.5 10.7C38.7 11 38.9 11.5 38.8 12.1ZM41.6 8.10003H39.6C39.4 8.10003 39.3 8.20002 39.2 8.40002L39.1 9.00003L39 8.80003C38.6 8.20003 37.6 7.90002 36.6 7.90002C34.3 7.90002 32.4 9.60003 32 12C31.8 13.2 32.1 14.3 32.8 15.1C33.4 15.8 34.3 16.1 35.4 16.1C37.2 16.1 38.2 14.9 38.2 14.9L38.1 15.5C38.1 15.7 38.2 15.9 38.5 15.9H40.3C40.6 15.9 40.8 15.7 40.9 15.4L42 8.40002C42 8.30002 41.9 8.10003 41.6 8.10003Z" fill="#1D1D1D"/>
<path d="M52.5 8.09998H50.4C50.2 8.09998 50 8.19997 49.9 8.39997L47.1 12.6L45.9 8.59998C45.8 8.29998 45.6 8.19997 45.3 8.19997H43.3C43.1 8.19997 42.9 8.39997 43 8.69997L45.3 15.3L43.2 18.3C43 18.5 43.2 18.9 43.5 18.9H45.6C45.8 18.9 46 18.8 46.1 18.6L52.9 8.69997C53 8.39997 52.8 8.09998 52.5 8.09998Z" fill="#1D1D1D"/>
<path d="M59.8 8.09998C59.6 9.59998 58.4 9.59998 57.3 9.59998H56.7L57.2 6.69997C57.2 6.49997 57.4 6.39997 57.6 6.39997H57.9C58.7 6.39997 59.4 6.39998 59.8 6.79998C59.9 7.19998 59.9 7.59998 59.8 8.09998ZM59.3 4.09998H55C54.7 4.09998 54.5 4.29998 54.4 4.59998L52.7 15.6C52.7 15.8 52.8 16 53.1 16H55.3C55.5 16 55.7 15.9 55.7 15.6L56.2 12.5C56.2 12.2 56.5 12 56.8 12H58.2C61 12 62.6 10.6 63.1 7.89997C63.3 6.69997 63.1 5.79998 62.6 5.09998C61.9 4.49998 60.8 4.09998 59.3 4.09998Z" fill="#434343"/>
<path d="M69.3 12.1C69.1 13.3 68.2 14.1 67 14.1C66.4 14.1 65.9 13.9 65.6 13.5C65.3 13.1 65.2 12.6 65.3 12.1C65.5 10.9 66.4 10.1 67.6 10.1C68.2 10.1 68.7 10.3 69 10.7C69.2 11 69.4 11.5 69.3 12.1ZM72.1 8.10003H70.1C69.9 8.10003 69.8 8.20002 69.7 8.40002L69.6 9.00003L69.5 8.80003C69.1 8.20003 68.1 7.90002 67.1 7.90002C64.8 7.90002 62.9 9.60003 62.5 12C62.3 13.2 62.6 14.3 63.3 15.1C63.9 15.8 64.8 16.1 65.9 16.1C67.7 16.1 68.7 14.9 68.7 14.9L68.6 15.5C68.6 15.7 68.7 15.9 69 15.9H70.8C71.1 15.9 71.3 15.7 71.4 15.4L72.5 8.40002C72.5 8.30002 72.3 8.10003 72.1 8.10003Z" fill="#434343"/>
<path d="M74.5 4.39997L72.7 15.6C72.7 15.8 72.8 16 73.1 16H74.9C75.2 16 75.4 15.8 75.5 15.5L77.2 4.49998C77.2 4.29998 77.1 4.09998 76.8 4.09998H74.8C74.7 4.09998 74.6 4.29997 74.5 4.39997Z" fill="#434343"/>
<path d="M4.49998 18.1L4.79997 16H4.09998H0.599976L2.99998 0.699974C2.99998 0.699974 2.99998 0.599976 3.09998 0.599976H3.19998H9.09998C11 0.599976 12.4 0.999976 13.1 1.79998C13.4 2.19998 13.6 2.59998 13.7 2.99998C13.8 3.49998 13.8 3.99997 13.7 4.69997V5.09998L14 5.29998C14.3 5.39998 14.5 5.59998 14.7 5.79998C15 6.09998 15.2 6.49998 15.2 6.99998C15.3 7.49998 15.3 8.09998 15.1 8.79998C14.9 9.59998 14.7 10.2 14.4 10.8C14.1 11.3 13.7 11.7 13.3 12.1C12.9 12.4 12.3 12.6 11.8 12.8C11.2 12.9 10.6 13 9.89998 13H9.39998C9.09998 13 8.79998 13.1 8.49998 13.3C8.29998 13.5 8.09998 13.8 7.99998 14.1V14.3L7.39998 18V18.1V18.2C7.39998 18.2 7.39997 18.2 7.29997 18.2H4.49998V18.1Z" fill="#1E1E1E"/>
<path d="M14.4 4.69995C14.4 4.79995 14.4 4.89995 14.3 4.99995C13.5 8.99995 10.9 10.2999 7.50003 10.2999H5.80002C5.40002 10.2999 5.00003 10.6 5.00003 11L4.10002 16.6L3.90002 18.2C3.90002 18.5 4.10002 18.7 4.30002 18.7H7.40002C7.80002 18.7 8.10002 18.4 8.10002 18.1V17.9L8.70003 14.2999V14.1C8.80003 13.7 9.10002 13.5 9.40002 13.5H9.90002C12.9 13.5 15.2 12.3 15.8 8.79995C16.1 7.29995 15.9 6.09995 15.2 5.29995C15 5.09995 14.7 4.89995 14.4 4.69995Z" fill="#434343"/>
<path d="M13.6 4.39997C13.5 4.39997 13.4 4.29998 13.2 4.29998C13.1 4.29998 12.9 4.19997 12.8 4.19997C12.3 4.09997 11.8 4.09998 11.3 4.09998H6.7C6.6 4.09998 6.49999 4.09997 6.39999 4.19997C6.19999 4.29997 6 4.49997 6 4.69997L5 10.9V11.1C5.1 10.7 5.39999 10.4 5.79999 10.4H7.5C10.9 10.4 13.5 8.99998 14.3 5.09998C14.3 4.99998 14.3 4.89998 14.4 4.79998C14.2 4.69998 14 4.59998 13.8 4.49998C13.7 4.39998 13.6 4.39997 13.6 4.39997Z" fill="#0E0E0E"/>
<path d="M6 4.7C6 4.5 6.19999 4.3 6.39999 4.2C6.49999 4.2 6.6 4.1 6.7 4.1H11.3C11.8 4.1 12.4 4.1 12.8 4.2C12.9 4.2 13.1 4.2 13.2 4.3C13.3 4.3 13.4 4.4 13.6 4.4C13.7 4.4 13.7 4.4 13.8 4.5C14 4.6 14.2 4.7 14.4 4.8C14.6 3.3 14.4 2.3 13.6 1.4C12.7 0.399998 11.1 0 9.09999 0H3.2C2.8 0 2.39999 0.299997 2.39999 0.699997L0 16.1C0 16.4 0.2 16.7 0.5 16.7H4.09999L5 10.9L6 4.7Z" fill="#1E1E1E"/>
</svg>
