<svg width="40" height="40" viewBox="0 0 40 40" fill="none" xmlns="http://www.w3.org/2000/svg">
<path d="M40 32.6602C40 39.238 28.5862 40 20 40C19.1346 40 18.2818 39.99 17.444 39.97C16.4478 39.95 15.6629 39.288 15.6931 38.494C15.7208 37.7021 16.5811 37.1061 17.5472 37.1001C18.3522 37.1181 19.1698 37.1261 20 37.1261C30.873 37.1261 36.3874 35.6241 36.3874 32.6602C36.3874 29.6683 30.873 28.1503 20 28.1503C9.12704 28.1503 3.61258 29.6543 3.61258 32.6202C3.61258 33.5902 4.04528 34.9961 7.80126 36.0081C8.74717 36.2621 9.25283 37.0761 8.93333 37.8261C8.61132 38.576 7.58994 38.986 6.64151 38.726C1.1522 37.2481 0 34.5901 0 32.6202C0 26.1746 10.9527 25.3119 19.4709 25.2794L20.9521 25.2798C26.6328 25.3029 40 25.7042 40 32.6602ZM20 0C27.4264 0 33.4667 4.80388 33.4667 10.7077C33.4667 16.6096 27.4264 21.4135 20 21.4135C12.5736 21.4135 6.53082 16.6096 6.53082 10.7077C6.53082 4.80388 12.5736 0 20 0ZM20 2.87393C14.566 2.87393 10.1459 6.38784 10.1459 10.7077C10.1459 15.0256 14.566 18.5395 20 18.5395C25.434 18.5395 29.8541 15.0256 29.8541 10.7077C29.8541 6.38784 25.434 2.87393 20 2.87393Z" fill="#6065DE"/>
</svg>
