<?xml version="1.0" encoding="utf-8"?>
<!-- Generator: Adobe Illustrator 25.4.1, SVG Export Plug-In . SVG Version: 6.00 Build 0)  -->
<svg version="1.1" id="Слой_1" xmlns="http://www.w3.org/2000/svg" xmlns:xlink="http://www.w3.org/1999/xlink" x="0px" y="0px"
	 viewBox="0 0 28 30" style="enable-background:new 0 0 28 30;" xml:space="preserve">
<style type="text/css">
	.st0{fill:none;stroke:#1E1E1E;stroke-width:2;stroke-linecap:round;}
	.st1{fill:#1E1E1E;}
</style>
<path class="st0" d="M17.1,4.8l6.4,12.5c1.3,2.5-0.4,5.5-3.1,5.5H7.5c-2.7,0-4.4-3-3.1-5.5l6.4-12.5C12.2,2.2,15.7,2.2,17.1,4.8z"/>
<path class="st1" d="M13.8,12.6c2.2,0,4-1.7,4.1-3.9c0-2.2-1.7-4-3.9-4.1c-2.2,0-4,1.7-4.1,3.9C9.8,10.7,11.6,12.6,13.8,12.6z
	 M14.5,13.3l0.1-4.4l-1.5,0L13,13.3L14.5,13.3z"/>
<path class="st1" d="M15.2,15.7c-1.3,1.8-1,4.3,0.8,5.6c1.8,1.3,4.3,1,5.6-0.8c1.3-1.8,1-4.3-0.8-5.6C19,13.5,16.5,13.9,15.2,15.7z
	 M14.1,15.6l3.5,2.7l0.9-1.2L15,14.4L14.1,15.6z"/>
<path class="st1" d="M12.5,15.6c-1.3-1.8-3.9-2.1-5.6-0.8s-2.1,3.8-0.8,5.6c1.3,1.8,3.9,2.1,5.6,0.8S13.8,17.4,12.5,15.6z
	 M12.6,14.4l-3.5,2.7l0.9,1.2l3.5-2.7L12.6,14.4z"/>
<ellipse class="st1" cx="13.9" cy="14.4" rx="1.5" ry="1.5"/>
</svg>
