<svg width="14" height="13" viewBox="0 0 14 13" fill="none" xmlns="http://www.w3.org/2000/svg">
<path d="M12.2779 0.625837C13.2353 0.0881907 14.3107 1.14914 13.671 2.00021L10.892 5.69738C10.6593 6.00698 10.6448 6.41509 10.8549 6.74016L13.3667 10.625C13.9401 11.5118 12.8118 12.4929 11.8923 11.907L7.86457 9.34029C7.52754 9.12552 7.08686 9.11318 6.73858 9.30875L2.5794 11.6444C1.62198 12.182 0.54655 11.1211 1.18627 10.27L3.9653 6.57282C4.19801 6.26322 4.2125 5.85511 4.00233 5.53004L1.49052 1.64522C0.917143 0.758421 2.04551 -0.222694 2.96494 0.363213L6.9927 2.92991C7.32972 3.14468 7.77041 3.15702 8.11869 2.96144L12.2779 0.625837Z" fill="#6065DE"/>
</svg>
